<svg xmlns="http://www.w3.org/2000/svg" width="30" height="30" viewBox="0 0 15 30"><path d="M11.52 13.63a34.593 34.593 0 0 0-3.54-1.66 7.873 7.873 0 0 1-1.94-1.13 1.774 1.774 0 0 1 .42-3.11 3.262 3.262 0 0 1 1.19-.26 8.785 8.785 0 0 1 4.47.92c.71.35.94.24 1.18-.52.25-.81.46-1.62.69-2.44a.849.849 0 0 0-.53-1.13 11.235 11.235 0 0 0-2.82-.87c-1.28-.21-1.28-.21-1.29-1.55 0-1.87 0-1.87-1.82-1.87-.26 0-.53-.01-.79 0-.85.02-.99.18-1.02 1.06-.01.4 0 .8 0 1.2-.01 1.18-.01 1.16-1.1 1.57A6.241 6.241 0 0 0 .19 9.66c-.16 2.63 1.17 4.41 3.26 5.71a33.405 33.405 0 0 0 4.07 1.89 5.785 5.785 0 0 1 1.48.91 2.139 2.139 0 0 1-.48 3.69 4.708 4.708 0 0 1-2.62.35 11.3 11.3 0 0 1-3.98-1.23c-.73-.4-.95-.29-1.2.53-.22.72-.41 1.43-.6 2.15a1.1 1.1 0 0 0 .73 1.65 12.592 12.592 0 0 0 3.59 1.07c.97.16 1 .2 1.01 1.24 0 .47 0 .95.01 1.42a.824.824 0 0 0 .87.95c.67.02 1.35.02 2.02 0a.78.78 0 0 0 .83-.9c0-.64.03-1.29.01-1.94a1.006 1.006 0 0 1 .85-1.16 6.723 6.723 0 0 0 1.48-12.36z" fill="#fff" fill-rule="evenodd"/></svg>