<svg xmlns="http://www.w3.org/2000/svg" width="30" height="30" viewBox="0 0 22 26"><path data-name="Forma 1" d="M19.531 3.02h1.443a1.058 1.058 0 0 0 1.034-1.09v-.84A1.064 1.064 0 0 0 20.974 0H1.044A1.064 1.064 0 0 0 .01 1.09v.84a1.058 1.058 0 0 0 1.034 1.09h1.442c.109 4.05 1.639 7.74 4 9.85-2.421 2.16-3.966 5.97-4 10.15H1.045a1.064 1.064 0 0 0-1.034 1.09v.8A1.064 1.064 0 0 0 1.045 26h19.93a1.064 1.064 0 0 0 1.034-1.09v-.8a1.064 1.064 0 0 0-1.034-1.09h-1.444c-.039-4.18-1.584-7.98-4-10.15 2.362-2.11 3.892-5.8 4-9.85zm-6.719 10.76l.387.21c2.623 1.36 4.391 4.94 4.437 9.03H4.382c.046-4.09 1.816-7.67 4.438-9.03l.386-.2a1.044 1.044 0 0 0 .547-.93 1.056 1.056 0 0 0-.547-.93l-.386-.19c-2.559-1.32-4.309-4.81-4.436-8.72h13.253c-.128 3.91-1.879 7.4-4.436 8.72l-.387.19a1.043 1.043 0 0 0-.545.93 1.026 1.026 0 0 0 .544.92zM6.803 22h8.969a4.5 4.5 0 0 0-8.968 0zm7.56-12.44H7.639a4.332 4.332 0 0 0 6.725 0z" fill="#fff" fill-rule="evenodd"/></svg>